<svg xmlns="http://www.w3.org/2000/svg" width="640" height="512"><rect id="backgroundrect" width="100%" height="100%" x="0" y="0" fill="none" stroke="none"/><!--! Font Awesome Pro 6.4.2 by @fontawesome - https://fontawesome.com License - https://fontawesome.com/license (Commercial License) Copyright 2023 Fonticons, Inc. --><g class="currentLayer" style=""><title>Layer 1</title><path d="M37.69285713434219,192 H604.0928571343422 c20.3,0 36.8,-16.5 36.8,-36.8 c0,-7.3 -2.2,-14.4 -6.2,-20.4 L559.0928571343422,21.4 C550.1928571343421,8 535.2928571343422,0 519.1928571343421,0 H122.5928571343422 c-16,0 -31,8 -39.9,21.4 L7.092857134342194,134.7 c-4,6.1 -6.2,13.2 -6.2,20.4 C0.8928571343421936,175.5 17.392857134342194,192 37.69285713434219,192 zM64.8928571343422,224 V384 v80 c0,26.5 21.5,48 48,48 H336.8928571343422 c26.5,0 48,-21.5 48,-48 V384 V224 H320.8928571343422 V384 H128.8928571343422 V224 H64.8928571343422 zm448,0 V480 c0,17.7 14.3,32 32,32 s32,-14.3 32,-32 V224 H512.8928571343422 z" id="svg_1" class="selected" fill="#ffffff" fill-opacity="1"/></g></svg>